<mxfile host="app.diagrams.net" modified="2023-11-06T14:40:25.851Z" agent="Mozilla/5.0 (Windows NT 10.0; Win64; x64) AppleWebKit/537.36 (KHTML, like Gecko) Chrome/118.0.0.0 Safari/537.36" etag="aSZrWwrpoj3qid7QXgiN" version="22.0.8" type="device">
  <diagram name="Trang-1" id="NJwxrYIe8tNQRGboF_Xj">
    <mxGraphModel dx="1434" dy="758" grid="1" gridSize="10" guides="1" tooltips="1" connect="1" arrows="1" fold="1" page="1" pageScale="1" pageWidth="827" pageHeight="1169" math="0" shadow="0">
      <root>
        <mxCell id="0" />
        <mxCell id="1" parent="0" />
        <mxCell id="k1AvGeWmbFuEmRWNxRF_-3" value="" style="edgeStyle=orthogonalEdgeStyle;rounded=0;orthogonalLoop=1;jettySize=auto;html=1;" edge="1" parent="1" source="k1AvGeWmbFuEmRWNxRF_-1" target="k1AvGeWmbFuEmRWNxRF_-2">
          <mxGeometry relative="1" as="geometry" />
        </mxCell>
        <mxCell id="k1AvGeWmbFuEmRWNxRF_-1" value="start" style="ellipse;whiteSpace=wrap;html=1;" vertex="1" parent="1">
          <mxGeometry x="390" y="40" width="120" height="80" as="geometry" />
        </mxCell>
        <mxCell id="k1AvGeWmbFuEmRWNxRF_-6" value="" style="edgeStyle=orthogonalEdgeStyle;rounded=0;orthogonalLoop=1;jettySize=auto;html=1;" edge="1" parent="1" source="k1AvGeWmbFuEmRWNxRF_-2" target="k1AvGeWmbFuEmRWNxRF_-4">
          <mxGeometry relative="1" as="geometry" />
        </mxCell>
        <mxCell id="k1AvGeWmbFuEmRWNxRF_-2" value="a,b" style="shape=parallelogram;perimeter=parallelogramPerimeter;whiteSpace=wrap;html=1;fixedSize=1;" vertex="1" parent="1">
          <mxGeometry x="390" y="160" width="120" height="60" as="geometry" />
        </mxCell>
        <mxCell id="k1AvGeWmbFuEmRWNxRF_-8" value="" style="edgeStyle=orthogonalEdgeStyle;rounded=0;orthogonalLoop=1;jettySize=auto;html=1;" edge="1" parent="1" source="k1AvGeWmbFuEmRWNxRF_-4" target="k1AvGeWmbFuEmRWNxRF_-7">
          <mxGeometry relative="1" as="geometry" />
        </mxCell>
        <mxCell id="k1AvGeWmbFuEmRWNxRF_-10" value="" style="edgeStyle=orthogonalEdgeStyle;rounded=0;orthogonalLoop=1;jettySize=auto;html=1;" edge="1" parent="1" source="k1AvGeWmbFuEmRWNxRF_-4" target="k1AvGeWmbFuEmRWNxRF_-9">
          <mxGeometry relative="1" as="geometry" />
        </mxCell>
        <mxCell id="k1AvGeWmbFuEmRWNxRF_-4" value="a=0" style="rhombus;whiteSpace=wrap;html=1;" vertex="1" parent="1">
          <mxGeometry x="410" y="260" width="80" height="80" as="geometry" />
        </mxCell>
        <mxCell id="k1AvGeWmbFuEmRWNxRF_-24" style="edgeStyle=orthogonalEdgeStyle;rounded=0;orthogonalLoop=1;jettySize=auto;html=1;entryX=1;entryY=0.5;entryDx=0;entryDy=0;" edge="1" parent="1" source="k1AvGeWmbFuEmRWNxRF_-7" target="k1AvGeWmbFuEmRWNxRF_-22">
          <mxGeometry relative="1" as="geometry">
            <mxPoint x="740" y="920" as="targetPoint" />
            <Array as="points">
              <mxPoint x="760" y="300" />
              <mxPoint x="760" y="930" />
            </Array>
          </mxGeometry>
        </mxCell>
        <mxCell id="k1AvGeWmbFuEmRWNxRF_-25" value="Text" style="edgeLabel;html=1;align=center;verticalAlign=middle;resizable=0;points=[];" vertex="1" connectable="0" parent="k1AvGeWmbFuEmRWNxRF_-24">
          <mxGeometry x="0.994" y="-4" relative="1" as="geometry">
            <mxPoint x="14" y="13" as="offset" />
          </mxGeometry>
        </mxCell>
        <mxCell id="k1AvGeWmbFuEmRWNxRF_-7" value="PT bậc 1" style="rounded=1;whiteSpace=wrap;html=1;" vertex="1" parent="1">
          <mxGeometry x="570" y="270" width="120" height="60" as="geometry" />
        </mxCell>
        <mxCell id="k1AvGeWmbFuEmRWNxRF_-12" value="" style="edgeStyle=orthogonalEdgeStyle;rounded=0;orthogonalLoop=1;jettySize=auto;html=1;" edge="1" parent="1" source="k1AvGeWmbFuEmRWNxRF_-9" target="k1AvGeWmbFuEmRWNxRF_-11">
          <mxGeometry relative="1" as="geometry" />
        </mxCell>
        <mxCell id="k1AvGeWmbFuEmRWNxRF_-9" value="DT=b^2-4ac" style="shape=parallelogram;perimeter=parallelogramPerimeter;whiteSpace=wrap;html=1;fixedSize=1;" vertex="1" parent="1">
          <mxGeometry x="390" y="400" width="120" height="60" as="geometry" />
        </mxCell>
        <mxCell id="k1AvGeWmbFuEmRWNxRF_-14" value="" style="edgeStyle=orthogonalEdgeStyle;rounded=0;orthogonalLoop=1;jettySize=auto;html=1;" edge="1" parent="1" source="k1AvGeWmbFuEmRWNxRF_-11" target="k1AvGeWmbFuEmRWNxRF_-13">
          <mxGeometry relative="1" as="geometry" />
        </mxCell>
        <mxCell id="k1AvGeWmbFuEmRWNxRF_-16" value="" style="edgeStyle=orthogonalEdgeStyle;rounded=0;orthogonalLoop=1;jettySize=auto;html=1;" edge="1" parent="1" source="k1AvGeWmbFuEmRWNxRF_-11" target="k1AvGeWmbFuEmRWNxRF_-15">
          <mxGeometry relative="1" as="geometry" />
        </mxCell>
        <mxCell id="k1AvGeWmbFuEmRWNxRF_-11" value="DT&amp;lt;0" style="rhombus;whiteSpace=wrap;html=1;" vertex="1" parent="1">
          <mxGeometry x="410" y="490" width="80" height="80" as="geometry" />
        </mxCell>
        <mxCell id="k1AvGeWmbFuEmRWNxRF_-26" style="edgeStyle=orthogonalEdgeStyle;rounded=0;orthogonalLoop=1;jettySize=auto;html=1;" edge="1" parent="1" source="k1AvGeWmbFuEmRWNxRF_-13">
          <mxGeometry relative="1" as="geometry">
            <mxPoint x="770" y="530" as="targetPoint" />
          </mxGeometry>
        </mxCell>
        <mxCell id="k1AvGeWmbFuEmRWNxRF_-13" value="PT vô nghiệm" style="rounded=0;whiteSpace=wrap;html=1;" vertex="1" parent="1">
          <mxGeometry x="570" y="500" width="120" height="60" as="geometry" />
        </mxCell>
        <mxCell id="k1AvGeWmbFuEmRWNxRF_-19" value="" style="edgeStyle=orthogonalEdgeStyle;rounded=0;orthogonalLoop=1;jettySize=auto;html=1;" edge="1" parent="1" source="k1AvGeWmbFuEmRWNxRF_-15" target="k1AvGeWmbFuEmRWNxRF_-17">
          <mxGeometry relative="1" as="geometry" />
        </mxCell>
        <mxCell id="k1AvGeWmbFuEmRWNxRF_-21" value="" style="edgeStyle=orthogonalEdgeStyle;rounded=0;orthogonalLoop=1;jettySize=auto;html=1;" edge="1" parent="1" source="k1AvGeWmbFuEmRWNxRF_-15" target="k1AvGeWmbFuEmRWNxRF_-20">
          <mxGeometry relative="1" as="geometry" />
        </mxCell>
        <mxCell id="k1AvGeWmbFuEmRWNxRF_-15" value="DT.=0" style="rhombus;whiteSpace=wrap;html=1;" vertex="1" parent="1">
          <mxGeometry x="410" y="610" width="80" height="80" as="geometry" />
        </mxCell>
        <mxCell id="k1AvGeWmbFuEmRWNxRF_-27" style="edgeStyle=orthogonalEdgeStyle;rounded=0;orthogonalLoop=1;jettySize=auto;html=1;" edge="1" parent="1" source="k1AvGeWmbFuEmRWNxRF_-17">
          <mxGeometry relative="1" as="geometry">
            <mxPoint x="770" y="650" as="targetPoint" />
          </mxGeometry>
        </mxCell>
        <mxCell id="k1AvGeWmbFuEmRWNxRF_-17" value="PT có nghiệm kép&lt;br&gt;x=-b/(2a)" style="rounded=0;whiteSpace=wrap;html=1;" vertex="1" parent="1">
          <mxGeometry x="570" y="620" width="120" height="60" as="geometry" />
        </mxCell>
        <mxCell id="k1AvGeWmbFuEmRWNxRF_-23" value="" style="edgeStyle=orthogonalEdgeStyle;rounded=0;orthogonalLoop=1;jettySize=auto;html=1;" edge="1" parent="1" source="k1AvGeWmbFuEmRWNxRF_-20" target="k1AvGeWmbFuEmRWNxRF_-22">
          <mxGeometry relative="1" as="geometry" />
        </mxCell>
        <mxCell id="k1AvGeWmbFuEmRWNxRF_-20" value="PT có 2 nghiệm pb&lt;br&gt;x1,x2" style="rounded=0;whiteSpace=wrap;html=1;" vertex="1" parent="1">
          <mxGeometry x="390" y="760" width="120" height="60" as="geometry" />
        </mxCell>
        <mxCell id="k1AvGeWmbFuEmRWNxRF_-22" value="end" style="ellipse;whiteSpace=wrap;html=1;" vertex="1" parent="1">
          <mxGeometry x="390" y="890" width="120" height="80" as="geometry" />
        </mxCell>
      </root>
    </mxGraphModel>
  </diagram>
</mxfile>
